<svg width="652" height="153" viewBox="0 0 652 153" fill="none" xmlns="http://www.w3.org/2000/svg">
<path d="M307.382 76.5C307.382 117.05 273.993 150 232.71 150C191.427 150 158.039 117.05 158.039 76.5C158.039 35.9499 191.427 3 232.71 3C273.993 3 307.382 35.9499 307.382 76.5Z" stroke="white" stroke-width="6"/>
<path d="M131.04 4.00021L4.13313 76.1469C3.63342 76.431 3.63342 77.1512 4.13314 77.4353L131.04 149.582" stroke="white" stroke-width="6" stroke-linecap="round"/>
<path d="M648.765 76.5C648.765 117.05 615.376 150 574.093 150C532.81 150 499.422 117.05 499.422 76.5C499.422 35.9499 532.81 3 574.093 3C615.376 3 648.765 35.9499 648.765 76.5Z" stroke="white" stroke-width="6"/>
<path d="M472.423 4.00021L345.516 76.1469C345.016 76.431 345.016 77.1512 345.516 77.4353L472.423 149.582" stroke="white" stroke-width="6" stroke-linecap="round"/>
</svg>
